<svg width="15" height="16" viewBox="0 0 15 16" fill="none" xmlns="http://www.w3.org/2000/svg">
<g clip-path="url(#clip0_9054_3273)">
<path d="M14.2105 11.0219C12.2356 15.7021 5.81373 17.0659 2.1327 13.419C-1.47672 9.84317 -0.359266 3.36486 4.38673 1.28947M11.9866 8.39473C13.4769 8.39473 14.222 8.39473 14.7032 7.72762C14.7212 7.70268 14.7511 7.65791 14.7672 7.63178C15.1995 6.93191 14.9767 6.3942 14.5313 5.31877C14.1273 4.34357 13.5353 3.45748 12.7889 2.7111C12.0425 1.96472 11.1564 1.37265 10.1812 0.968711C9.10578 0.523259 8.56807 0.300525 7.8682 0.732714C7.84207 0.748866 7.79731 0.778756 7.77236 0.79674C7.10525 1.27795 7.10525 2.02307 7.10525 3.51331V5.17959C7.10525 6.69523 7.10525 7.45305 7.5761 7.92389C8.04694 8.39473 8.80475 8.39473 10.3204 8.39473H11.9866Z" stroke="#222222" stroke-linecap="round"/>
</g>
<defs>
<clipPath id="clip0_9054_3273">
<rect width="15" height="15" fill="white" transform="translate(0 0.5)"/>
</clipPath>
</defs>
</svg>
