<svg width="15" height="16" viewBox="0 0 15 16" fill="none" xmlns="http://www.w3.org/2000/svg">
<g clip-path="url(#clip0_9054_3269)">
<path d="M14.091 7.3229C14.197 7.47193 14.25 7.62732 14.25 7.79817C14.25 8.53452 13.2655 8.98318 11.2963 9.8804L10.0178 10.463C8.7786 11.0276 8.15895 11.31 7.5 11.31C6.84105 11.31 6.2214 11.0276 4.98223 10.463L3.70363 9.8804C1.73454 8.98318 0.75 8.53452 0.75 7.79817C0.75 7.62732 0.803002 7.47193 0.909 7.3229M13.7825 11.1996C14.0941 11.4478 14.25 11.6953 14.25 11.9882C14.25 12.7246 13.2655 13.1732 11.2963 14.0704L10.0178 14.653C8.7786 15.2177 8.15895 15.5 7.5 15.5C6.84105 15.5 6.2214 15.2177 4.98223 14.653L3.70363 14.0704C1.73454 13.1732 0.75 12.7246 0.75 11.9882C0.75 11.6953 0.905835 11.4478 1.2175 11.1996M4.98223 1.35919L3.70362 1.95021C1.73454 2.86039 0.75 3.31548 0.75 4.0625C0.75 4.80952 1.73454 5.26461 3.70363 6.17478L4.98223 6.7658C6.2214 7.33857 6.84105 7.625 7.5 7.625C8.15895 7.625 8.7786 7.33857 10.0178 6.7658L11.2963 6.17478C13.2655 5.26461 14.25 4.80952 14.25 4.0625C14.25 3.31548 13.2655 2.86039 11.2963 1.95021L10.0178 1.35919C8.7786 0.786395 8.15895 0.5 7.5 0.5C6.84105 0.5 6.2214 0.786395 4.98223 1.35919Z" stroke="#222222" stroke-linecap="round" stroke-linejoin="round"/>
</g>
<defs>
<clipPath id="clip0_9054_3269">
<rect width="13.5" height="15" fill="white" transform="translate(0.75 0.5)"/>
</clipPath>
</defs>
</svg>
