<svg width="16" height="16" viewBox="0 0 16 16" fill="none" xmlns="http://www.w3.org/2000/svg">
<g clip-path="url(#clip0_9069_8595)">
<path d="M4.625 11.75C6.37378 9.91835 9.6074 9.8321 11.375 11.75M15.5 8C15.5 12.1421 12.1421 15.5 8 15.5C3.85786 15.5 0.5 12.1421 0.5 8C0.5 3.85786 3.85786 0.5 8 0.5C12.1421 0.5 15.5 3.85786 15.5 8ZM9.87133 6.125C9.87133 7.16053 9.03065 8 7.99362 8C6.95667 8 6.11598 7.16053 6.11598 6.125C6.11598 5.08947 6.95667 4.25 7.99362 4.25C9.03065 4.25 9.87133 5.08947 9.87133 6.125Z" stroke="#222222" stroke-linecap="round"/>
</g>
<defs>
<clipPath id="clip0_9069_8595">
<rect width="15" height="15" fill="white" transform="translate(0.5 0.5)"/>
</clipPath>
</defs>
</svg>
