<svg width="14" height="14" viewBox="0 0 14 14" fill="none" xmlns="http://www.w3.org/2000/svg">
<g clip-path="url(#clip0_9069_8593)">
<path d="M7 2.80001V12.6M2.78639 0.899822C5.12522 1.34513 6.51917 2.27663 7 2.81141C7.48083 2.27663 8.87474 1.34513 11.2136 0.899822C12.3985 0.674219 12.9909 0.561421 13.4954 0.993762C14 1.4261 14 2.12817 14 3.5323V8.57851C14 9.86238 14 10.5043 13.6762 10.9051C13.3524 11.3059 12.6395 11.4416 11.2136 11.7131C9.94259 11.9551 8.95062 12.3407 8.23256 12.7282C7.52612 13.1094 7.1729 13.3 7 13.3C6.8271 13.3 6.47388 13.1094 5.76744 12.7282C5.04941 12.3407 4.05743 11.9551 2.78639 11.7131C1.36055 11.4416 0.64764 11.3059 0.32382 10.9051C0 10.5043 0 9.86238 0 8.57851V3.5323C0 2.12817 -1.40816e-07 1.4261 0.504546 0.993762C1.0091 0.561421 1.60153 0.674219 2.78639 0.899822Z" stroke="#222222" stroke-linecap="round" stroke-linejoin="round"/>
</g>
<defs>
<clipPath id="clip0_9069_8593">
<rect width="14" height="12.6" fill="white" transform="translate(0 0.700012)"/>
</clipPath>
</defs>
</svg>
