<svg width="12" height="18" viewBox="0 0 12 18" fill="none" xmlns="http://www.w3.org/2000/svg">
<g clip-path="url(#clip0_9069_8590)">
<path d="M9.63727 6.3C11.008 7.50177 11.8962 9.53721 11.0986 11.4347C10.9267 11.8435 10.5324 12.1085 10.0962 12.1085C9.65257 12.1085 8.92402 11.9664 8.78245 12.5437L7.79497 16.5711C7.58905 17.4109 6.84898 18 6.00001 18C5.15095 18 4.41088 17.4109 4.20496 16.5711L3.21747 12.5437C3.07591 11.9664 2.34731 12.1085 1.90373 12.1085C1.46748 12.1085 1.07321 11.8435 0.901366 11.4347C0.103777 9.53721 0.991996 7.50177 2.36269 6.3M8.69992 2.7C8.69992 4.19117 7.11754 5.85 5.99992 5.85C4.8823 5.85 3.29992 4.19117 3.29992 2.7C3.29992 1.20883 4.50871 0 5.99992 0C7.49113 0 8.69992 1.20883 8.69992 2.7Z" stroke="#222222" stroke-linecap="round"/>
</g>
<defs>
<clipPath id="clip0_9069_8590">
<rect width="10.8" height="18" fill="white" transform="translate(0.599976)"/>
</clipPath>
</defs>
</svg>
