<svg width="10" height="3" viewBox="0 0 10 3" fill="none" xmlns="http://www.w3.org/2000/svg">
<g clip-path="url(#clip0_9055_3294)">
<path fill-rule="evenodd" clip-rule="evenodd" d="M9.13793 0.634827C9.61404 0.634827 10 1.02079 10 1.4969L10 1.5031C10 1.97921 9.61404 2.36517 9.13793 2.36517C8.66182 2.36517 8.27586 1.97921 8.27586 1.5031L8.27586 1.4969C8.27586 1.02079 8.66182 0.634827 9.13793 0.634827ZM5 0.634826C5.47611 0.634826 5.86207 1.02079 5.86207 1.4969L5.86207 1.5031C5.86207 1.97921 5.47611 2.36517 5 2.36517C4.52389 2.36517 4.13793 1.97921 4.13793 1.5031L4.13793 1.4969C4.13793 1.02079 4.52389 0.634826 5 0.634826ZM0.862069 0.634826C1.33818 0.634826 1.72414 1.02079 1.72414 1.4969L1.72414 1.5031C1.72414 1.97921 1.33818 2.36517 0.862069 2.36517C0.385961 2.36517 -5.87649e-08 1.97921 -3.79536e-08 1.5031L-3.76822e-08 1.4969C-1.68709e-08 1.02079 0.385961 0.634826 0.862069 0.634826Z" fill="#222222"/>
</g>
<defs>
<clipPath id="clip0_9055_3294">
<rect width="10" height="1.73035" fill="white" transform="translate(0 0.634827)"/>
</clipPath>
</defs>
</svg>
