<svg width="12" height="16" viewBox="0 0 12 16" fill="none" xmlns="http://www.w3.org/2000/svg">
<g clip-path="url(#clip0_9069_8591)">
<path d="M6.75 15.125V14.75C6.75 12.6287 6.75 11.568 7.40902 10.909C8.06805 10.25 9.1287 10.25 11.25 10.25H11.625M12 9.00733V6.5C12 3.67157 12 2.25736 11.1213 1.37868C10.2427 0.5 8.8284 0.5 6 0.5C3.17158 0.5 1.75736 0.5 0.878677 1.37868C-5.58794e-08 2.25735 0 3.67157 0 6.5V9.90815C0 12.3419 -2.23517e-07 13.5588 0.664552 14.383C0.79881 14.5495 0.950482 14.7012 1.117 14.8354C1.94123 15.5 3.15811 15.5 5.59185 15.5C6.12105 15.5 6.38557 15.5 6.6279 15.4145C6.6783 15.3967 6.72765 15.3763 6.77588 15.3532C7.0077 15.2423 7.19475 15.0552 7.56892 14.6811L11.1213 11.1287C11.5549 10.6951 11.7716 10.4784 11.8858 10.2027C12 9.92705 12 9.62045 12 9.00733Z" stroke="#222222" stroke-linecap="round" stroke-linejoin="round"/>
</g>
<defs>
<clipPath id="clip0_9069_8591">
<rect width="12" height="15" fill="white" transform="translate(0 0.5)"/>
</clipPath>
</defs>
</svg>
