<svg width="15" height="14" viewBox="0 0 15 14" fill="none" xmlns="http://www.w3.org/2000/svg">
<g clip-path="url(#clip0_9054_3274)">
<path d="M7.5 2.80001V12.6M3.28639 0.899822C5.62522 1.34513 7.01917 2.27663 7.5 2.81141C7.98083 2.27663 9.37474 1.34513 11.7136 0.899822C12.8985 0.674219 13.4909 0.561421 13.9954 0.993762C14.5 1.4261 14.5 2.12817 14.5 3.5323V8.57851C14.5 9.86238 14.5 10.5043 14.1762 10.9051C13.8524 11.3059 13.1395 11.4416 11.7136 11.7131C10.4426 11.9551 9.45062 12.3407 8.73256 12.7282C8.02612 13.1094 7.6729 13.3 7.5 13.3C7.3271 13.3 6.97388 13.1094 6.26744 12.7282C5.54941 12.3407 4.55743 11.9551 3.28639 11.7131C1.86055 11.4416 1.14764 11.3059 0.82382 10.9051C0.5 10.5043 0.5 9.86238 0.5 8.57851V3.5323C0.5 2.12817 0.5 1.4261 1.00455 0.993762C1.5091 0.561421 2.10153 0.674219 3.28639 0.899822Z" stroke="#222222" stroke-linecap="round" stroke-linejoin="round"/>
</g>
<defs>
<clipPath id="clip0_9054_3274">
<rect width="14" height="12.6" fill="white" transform="translate(0.5 0.700012)"/>
</clipPath>
</defs>
</svg>
