<svg width="14" height="16" viewBox="0 0 14 16" fill="none" xmlns="http://www.w3.org/2000/svg">
<g clip-path="url(#clip0_9069_8588)">
<path d="M13.591 7.3229C13.697 7.47193 13.75 7.62732 13.75 7.79817C13.75 8.53452 12.7655 8.98318 10.7963 9.8804L9.51775 10.463C8.2786 11.0276 7.65895 11.31 7 11.31C6.34105 11.31 5.7214 11.0276 4.48223 10.463L3.20363 9.8804C1.23454 8.98318 0.25 8.53452 0.25 7.79817C0.25 7.62732 0.303002 7.47193 0.409 7.3229M13.2825 11.1996C13.5941 11.4478 13.75 11.6953 13.75 11.9882C13.75 12.7246 12.7655 13.1732 10.7963 14.0704L9.51775 14.653C8.2786 15.2177 7.65895 15.5 7 15.5C6.34105 15.5 5.7214 15.2177 4.48223 14.653L3.20363 14.0704C1.23454 13.1732 0.25 12.7246 0.25 11.9882C0.25 11.6953 0.405835 11.4478 0.717505 11.1996M4.48223 1.35919L3.20362 1.95021C1.23454 2.86039 0.25 3.31548 0.25 4.0625C0.25 4.80952 1.23454 5.26461 3.20363 6.17478L4.48223 6.7658C5.7214 7.33857 6.34105 7.625 7 7.625C7.65895 7.625 8.2786 7.33857 9.51775 6.7658L10.7963 6.17478C12.7655 5.26461 13.75 4.80952 13.75 4.0625C13.75 3.31548 12.7655 2.86039 10.7963 1.95021L9.51775 1.35919C8.2786 0.786395 7.65895 0.5 7 0.5C6.34105 0.5 5.7214 0.786395 4.48223 1.35919Z" stroke="#222222" stroke-linecap="round" stroke-linejoin="round"/>
</g>
<defs>
<clipPath id="clip0_9069_8588">
<rect width="13.5" height="15" fill="white" transform="translate(0.25 0.5)"/>
</clipPath>
</defs>
</svg>
