<svg width="12" height="19" viewBox="0 0 12 19" fill="none" xmlns="http://www.w3.org/2000/svg">
<g clip-path="url(#clip0_9070_8626)">
<path d="M9.53937 6.65C10.9862 7.91854 11.9238 10.0671 11.0819 12.0699C10.9004 12.5014 10.4842 12.7812 10.0238 12.7812C9.55551 12.7812 8.78649 12.6312 8.63706 13.2405L7.59472 17.4917C7.37736 18.3781 6.59617 19 5.70004 19C4.80381 19 4.02262 18.3781 3.80526 17.4917L2.76291 13.2405C2.61349 12.6312 1.84441 12.7812 1.37619 12.7812C0.915703 12.7812 0.499527 12.5014 0.318134 12.0699C-0.523765 10.0671 0.413799 7.91854 1.86064 6.65M8.54994 2.85C8.54994 4.42401 6.87965 6.175 5.69994 6.175C4.52023 6.175 2.84994 4.42401 2.84994 2.85C2.84994 1.27599 4.12589 0 5.69994 0C7.274 0 8.54994 1.27599 8.54994 2.85Z" stroke="#222222" stroke-linecap="round"/>
</g>
<defs>
<clipPath id="clip0_9070_8626">
<rect width="11.4" height="19" fill="white"/>
</clipPath>
</defs>
</svg>
