<svg width="13" height="16" viewBox="0 0 13 16" fill="none" xmlns="http://www.w3.org/2000/svg">
<g clip-path="url(#clip0_9054_3272)">
<path d="M7.25 15.125V14.75C7.25 12.6287 7.25 11.568 7.90902 10.909C8.56805 10.25 9.6287 10.25 11.75 10.25H12.125M12.5 9.00733V6.5C12.5 3.67157 12.5 2.25736 11.6213 1.37868C10.7427 0.5 9.3284 0.5 6.5 0.5C3.67158 0.5 2.25736 0.5 1.37868 1.37868C0.5 2.25735 0.5 3.67157 0.5 6.5V9.90815C0.5 12.3419 0.5 13.5588 1.16455 14.383C1.29881 14.5495 1.45048 14.7012 1.617 14.8354C2.44123 15.5 3.65811 15.5 6.09185 15.5C6.62105 15.5 6.88557 15.5 7.1279 15.4145C7.1783 15.3967 7.22765 15.3763 7.27588 15.3532C7.5077 15.2423 7.69475 15.0552 8.06892 14.6811L11.6213 11.1287C12.0549 10.6951 12.2716 10.4784 12.3858 10.2027C12.5 9.92705 12.5 9.62045 12.5 9.00733Z" stroke="#222222" stroke-linecap="round" stroke-linejoin="round"/>
</g>
<defs>
<clipPath id="clip0_9054_3272">
<rect width="12" height="15" fill="white" transform="translate(0.5 0.5)"/>
</clipPath>
</defs>
</svg>
