<svg width="16" height="14" viewBox="0 0 16 14" fill="none" xmlns="http://www.w3.org/2000/svg">
<g clip-path="url(#clip0_9069_8600)">
<path d="M9.2 5.70001C8.92386 5.70001 8.7 5.92386 8.7 6.20001C8.7 6.47615 8.92386 6.70001 9.2 6.70001V5.70001ZM9.2 0.100006C8.92386 0.100006 8.7 0.323864 8.7 0.600006C8.7 0.876148 8.92386 1.10001 9.2 1.10001V0.100006ZM8.91432 13.9C9.19046 13.9 9.41432 13.6761 9.41432 13.4C9.41432 13.1239 9.19046 12.9 8.91432 12.9V13.9ZM8.62944 9.69635C8.85638 9.85369 9.16789 9.79726 9.32523 9.57033C9.48256 9.34339 9.42614 9.03188 9.1992 8.87454L8.62944 9.69635ZM14.1 8.60001C14.1 8.32386 13.8761 8.10001 13.6 8.10001C13.3239 8.10001 13.1 8.32386 13.1 8.60001H14.1ZM13.1 13.4C13.1 13.6761 13.3239 13.9 13.6 13.9C13.8761 13.9 14.1 13.6761 14.1 13.4H13.1ZM16 11.5C16.2761 11.5 16.5 11.2761 16.5 11C16.5 10.7239 16.2761 10.5 16 10.5V11.5ZM11.2 10.5C10.9239 10.5 10.7 10.7239 10.7 11C10.7 11.2761 10.9239 11.5 11.2 11.5V10.5ZM7.5 3.40001C7.5 4.67026 6.47026 5.70001 5.2 5.70001V6.70001C7.02254 6.70001 8.5 5.22255 8.5 3.40001H7.5ZM5.2 5.70001C3.92974 5.70001 2.9 4.67026 2.9 3.40001H1.9C1.9 5.22255 3.37746 6.70001 5.2 6.70001V5.70001ZM2.9 3.40001C2.9 2.12975 3.92974 1.10001 5.2 1.10001V0.100006C3.37746 0.100006 1.9 1.57746 1.9 3.40001H2.9ZM5.2 1.10001C6.47026 1.10001 7.5 2.12975 7.5 3.40001H8.5C8.5 1.57746 7.02254 0.100006 5.2 0.100006V1.10001ZM9.2 6.70001C11.0225 6.70001 12.5 5.22255 12.5 3.40001H11.5C11.5 4.67026 10.4703 5.70001 9.2 5.70001V6.70001ZM12.5 3.40001C12.5 1.57746 11.0225 0.100006 9.2 0.100006V1.10001C10.4703 1.10001 11.5 2.12975 11.5 3.40001H12.5ZM8.91432 12.9H1.48571V13.9H8.91432V12.9ZM1.48571 12.9C0.902884 12.9 0.5 12.4729 0.5 12.0286H-0.5C-0.5 13.0991 0.427468 13.9 1.48571 13.9V12.9ZM0.5 12.0286C0.5 10.4481 1.90065 9.10001 3.71429 9.10001V8.10001C1.42524 8.10001 -0.5 9.82197 -0.5 12.0286H0.5ZM3.71429 9.10001H6.68568V8.10001H3.71429V9.10001ZM6.68568 9.10001C7.41957 9.10001 8.09194 9.3237 8.62944 9.69635L9.1992 8.87454C8.4951 8.38639 7.62411 8.10001 6.68568 8.10001V9.10001ZM13.1 8.60001V13.4H14.1V8.60001H13.1ZM16 10.5H11.2V11.5H16V10.5Z" fill="#222222"/>
</g>
<defs>
<clipPath id="clip0_9069_8600">
<rect width="16" height="12.8" fill="white" transform="translate(0 0.600006)"/>
</clipPath>
</defs>
</svg>
