<svg width="17" height="14" viewBox="0 0 17 14" fill="none" xmlns="http://www.w3.org/2000/svg">
<g clip-path="url(#clip0_9069_8440)">
<path d="M9.7 5.69998C9.42386 5.69998 9.2 5.92383 9.2 6.19998C9.2 6.47612 9.42386 6.69998 9.7 6.69998V5.69998ZM9.7 0.0999756C9.42386 0.0999756 9.2 0.323833 9.2 0.599976C9.2 0.876118 9.42386 1.09998 9.7 1.09998V0.0999756ZM9.41432 13.9C9.69046 13.9 9.91432 13.6761 9.91432 13.4C9.91432 13.1238 9.69046 12.9 9.41432 12.9V13.9ZM9.12944 9.69632C9.35638 9.85366 9.66789 9.79723 9.82523 9.5703C9.98256 9.34336 9.92614 9.03185 9.6992 8.87451L9.12944 9.69632ZM14.6 8.59998C14.6 8.32383 14.3761 8.09998 14.1 8.09998C13.8239 8.09998 13.6 8.32383 13.6 8.59998H14.6ZM13.6 13.4C13.6 13.6761 13.8239 13.9 14.1 13.9C14.3761 13.9 14.6 13.6761 14.6 13.4H13.6ZM16.5 11.5C16.7761 11.5 17 11.2761 17 11C17 10.7238 16.7761 10.5 16.5 10.5V11.5ZM11.7 10.5C11.4239 10.5 11.2 10.7238 11.2 11C11.2 11.2761 11.4239 11.5 11.7 11.5V10.5ZM8 3.39998C8 4.67023 6.97026 5.69998 5.7 5.69998V6.69998C7.52254 6.69998 9 5.22252 9 3.39998H8ZM5.7 5.69998C4.42974 5.69998 3.4 4.67023 3.4 3.39998H2.4C2.4 5.22252 3.87746 6.69998 5.7 6.69998V5.69998ZM3.4 3.39998C3.4 2.12972 4.42974 1.09998 5.7 1.09998V0.0999756C3.87746 0.0999756 2.4 1.57743 2.4 3.39998H3.4ZM5.7 1.09998C6.97026 1.09998 8 2.12972 8 3.39998H9C9 1.57743 7.52254 0.0999756 5.7 0.0999756V1.09998ZM9.7 6.69998C11.5225 6.69998 13 5.22252 13 3.39998H12C12 4.67023 10.9703 5.69998 9.7 5.69998V6.69998ZM13 3.39998C13 1.57743 11.5225 0.0999756 9.7 0.0999756V1.09998C10.9703 1.09998 12 2.12972 12 3.39998H13ZM9.41432 12.9H1.98571V13.9H9.41432V12.9ZM1.98571 12.9C1.40288 12.9 1 12.4729 1 12.0285H0C0 13.099 0.927468 13.9 1.98571 13.9V12.9ZM1 12.0285C1 10.4481 2.40065 9.09998 4.21429 9.09998V8.09998C1.92524 8.09998 0 9.82194 0 12.0285H1ZM4.21429 9.09998H7.18568V8.09998H4.21429V9.09998ZM7.18568 9.09998C7.91957 9.09998 8.59194 9.32367 9.12944 9.69632L9.6992 8.87451C8.9951 8.38636 8.12411 8.09998 7.18568 8.09998V9.09998ZM13.6 8.59998V13.4H14.6V8.59998H13.6ZM16.5 10.5H11.7V11.5H16.5V10.5Z" fill="#222222"/>
</g>
<defs>
<clipPath id="clip0_9069_8440">
<rect width="16" height="12.8" fill="white" transform="translate(0.5 0.599976)"/>
</clipPath>
</defs>
</svg>
