<svg width="12" height="15" viewBox="0 0 12 15" fill="none" xmlns="http://www.w3.org/2000/svg">
<g clip-path="url(#clip0_9070_8633)">
<path d="M6.75 14.625V14.25C6.75 12.1287 6.75 11.068 7.40902 10.409C8.06805 9.75 9.1287 9.75 11.25 9.75H11.625M12 8.50733V6C12 3.17157 12 1.75736 11.1213 0.878677C10.2427 5.58794e-08 8.8284 0 6 0C3.17158 0 1.75736 5.58794e-08 0.878677 0.878677C-5.58794e-08 1.75735 0 3.17157 0 6V9.40815C0 11.8419 -2.23517e-07 13.0588 0.664552 13.883C0.79881 14.0495 0.950482 14.2012 1.117 14.3354C1.94123 15 3.15811 15 5.59185 15C6.12105 15 6.38557 15 6.6279 14.9145C6.6783 14.8967 6.72765 14.8763 6.77588 14.8532C7.0077 14.7423 7.19475 14.5552 7.56892 14.1811L11.1213 10.6287C11.5549 10.1951 11.7716 9.97837 11.8858 9.70267C12 9.42705 12 9.12045 12 8.50733Z" stroke="#222222" stroke-linecap="round" stroke-linejoin="round"/>
</g>
<defs>
<clipPath id="clip0_9070_8633">
<rect width="12" height="15" fill="white"/>
</clipPath>
</defs>
</svg>
