<svg width="21" height="14" viewBox="0 0 21 14" fill="none" xmlns="http://www.w3.org/2000/svg">
<g clip-path="url(#clip0_9042_30704)">
<path d="M11 4.86967C12.9623 1.62167 14.6835 0 16.1647 0C18.387 0 19.7904 2.58183 20.6093 6.0865C21.3915 9.4337 21.1649 14 18.387 14C17.1491 14 15.4446 12.1742 13.7779 9.7393C12.7173 8.205 11.7878 6.5755 11 4.86967ZM11 4.86967C8.84147 1.62167 6.94817 0 5.31888 0C2.87433 0 1.3306 2.58183 0.429781 6.0865C-0.430696 9.4337 -0.181352 14 2.87433 14C4.23594 14 6.11091 12.1742 7.94432 9.7393C9.1666 8.1165 10.1847 6.4925 11 4.86967Z" stroke="#222222" stroke-linecap="round" stroke-linejoin="round"/>
</g>
<defs>
<clipPath id="clip0_9042_30704">
<rect width="21" height="14" fill="white"/>
</clipPath>
</defs>
</svg>
