<svg width="15" height="16" viewBox="0 0 15 16" fill="none" xmlns="http://www.w3.org/2000/svg">
<g clip-path="url(#clip0_9054_3281)">
<path d="M3.58154 8.02172H9.08856M9.08856 8.02172C9.08856 8.47204 7.38709 9.98538 7.38709 9.98538M9.08856 8.02172C9.08856 7.55957 7.38709 6.07612 7.38709 6.07612M11.4762 4.83825V11.154M0 8.00001C0 4.46446 -1.11759e-07 2.69669 1.09835 1.59835C2.1967 0.5 3.96446 0.5 7.49999 0.5C11.0355 0.5 12.8033 0.5 13.9017 1.59835C15 2.69669 15 4.46446 15 8.00001C15 11.5355 15 13.3033 13.9017 14.4016C12.8033 15.5 11.0355 15.5 7.49999 15.5C3.96446 15.5 2.1967 15.5 1.09835 14.4016C-1.11759e-07 13.3033 0 11.5355 0 8.00001Z" stroke="#222222" stroke-linecap="round"/>
</g>
<defs>
<clipPath id="clip0_9054_3281">
<rect width="15" height="15" fill="white" transform="translate(0 0.5)"/>
</clipPath>
</defs>
</svg>
