<svg width="17" height="14" viewBox="0 0 17 14" fill="none" xmlns="http://www.w3.org/2000/svg">
<g clip-path="url(#clip0_9054_3270)">
<path d="M11.7 7.79998H13.3M16.5 9.39998V7.36174C16.5 6.57782 16.5 6.18582 16.4382 5.80686C16.4075 5.61942 16.3658 5.43502 16.3131 5.25508C16.2066 4.89126 16.0416 4.55511 15.7116 3.88286C15.0501 2.53539 14.7194 1.86166 14.2372 1.40908C14.0005 1.1869 13.7394 1.00628 13.4618 0.872496C12.8962 0.599976 12.2533 0.599976 10.9676 0.599976H6.03238C4.74669 0.599976 4.10384 0.599976 3.53823 0.872496C3.26055 1.00628 2.99955 1.1869 2.76282 1.40908C2.28063 1.86166 1.94989 2.53539 1.2884 3.88286C0.958384 4.55513 0.793368 4.89126 0.686912 5.25508C0.634248 5.43502 0.592456 5.61942 0.561864 5.80686C0.5 6.18582 0.5 6.57782 0.5 7.36174V9.39998M12.5 4.59998H4.5C3.00462 4.59998 2.25692 4.59998 1.7 4.95367C1.33515 5.18538 1.03218 5.51862 0.821536 5.91998C0.5 6.53262 0.5 7.35502 0.5 8.99998C0.5 10.6449 0.5 11.4673 0.821536 12.08C1.03218 12.4813 1.33515 12.8145 1.7 13.0463C2.25692 13.4 3.00462 13.4 4.5 13.4C4.99066 13.4 5.23598 13.4 5.46826 13.3623C6.08797 13.2617 6.66722 12.9633 7.13416 12.504C7.3092 12.3318 7.46624 12.1245 7.7804 11.7099L8.04768 11.357C8.20672 11.1471 8.28624 11.0421 8.38344 11.0011C8.46416 10.9669 8.55272 10.9625 8.63592 10.9885C8.73608 11.0197 8.82392 11.1163 8.9996 11.3095L9.76864 12.1555C9.95944 12.3653 10.0548 12.4703 10.1541 12.5629C10.6645 13.0398 11.2981 13.3285 11.9655 13.3884C12.0953 13.4 12.2302 13.4 12.5 13.4C13.9954 13.4 14.743 13.4 15.3 13.0463C15.6649 12.8145 15.9678 12.4813 16.1785 12.08C16.5 11.4673 16.5 10.6449 16.5 8.99998C16.5 7.35502 16.5 6.53262 16.1785 5.91998C15.9678 5.51862 15.6649 5.18538 15.3 4.95367C14.743 4.59998 13.9954 4.59998 12.5 4.59998Z" stroke="#222222" stroke-linecap="round"/>
</g>
<defs>
<clipPath id="clip0_9054_3270">
<rect width="16" height="12.8" fill="white" transform="translate(0.5 0.599976)"/>
</clipPath>
</defs>
</svg>
