<svg width="14" height="15" viewBox="0 0 14 15" fill="none" xmlns="http://www.w3.org/2000/svg">
<g clip-path="url(#clip0_9042_30697)">
<path d="M13.341 6.8229C13.447 6.97193 13.5 7.12732 13.5 7.29817C13.5 8.03452 12.5155 8.48318 10.5463 9.3804L9.26775 9.963C8.0286 10.5276 7.40895 10.81 6.75 10.81C6.09105 10.81 5.4714 10.5276 4.23223 9.963L2.95363 9.3804C0.98454 8.48318 0 8.03452 0 7.29817C0 7.12732 0.0530024 6.97193 0.159 6.8229M13.0325 10.6996C13.3441 10.9478 13.5 11.1953 13.5 11.4882C13.5 12.2246 12.5155 12.6732 10.5463 13.5704L9.26775 14.153C8.0286 14.7177 7.40895 15 6.75 15C6.09105 15 5.4714 14.7177 4.23223 14.153L2.95363 13.5704C0.98454 12.6732 0 12.2246 0 11.4882C0 11.1953 0.155835 10.9478 0.467505 10.6996M4.23223 0.859193L2.95362 1.45021C0.98454 2.36039 0 2.81548 0 3.5625C0 4.30952 0.98454 4.76461 2.95363 5.67478L4.23223 6.2658C5.4714 6.83857 6.09105 7.125 6.75 7.125C7.40895 7.125 8.0286 6.83857 9.26775 6.2658L10.5463 5.67478C12.5155 4.76461 13.5 4.30952 13.5 3.5625C13.5 2.81548 12.5155 2.36039 10.5463 1.45021L9.26775 0.859193C8.0286 0.286395 7.40895 0 6.75 0C6.09105 0 5.4714 0.286395 4.23223 0.859193Z" stroke="#222222" stroke-linecap="round" stroke-linejoin="round"/>
</g>
<defs>
<clipPath id="clip0_9042_30697">
<rect width="13.5" height="15" fill="white"/>
</clipPath>
</defs>
</svg>
