<svg width="16" height="16" viewBox="0 0 16 16" fill="none" xmlns="http://www.w3.org/2000/svg">
<g clip-path="url(#clip0_9069_8602)">
<path d="M4.08154 8.02172H9.58856M9.58856 8.02172C9.58856 8.47204 7.88709 9.98538 7.88709 9.98538M9.58856 8.02172C9.58856 7.55957 7.88709 6.07612 7.88709 6.07612M11.9762 4.83825V11.154M0.5 8.00001C0.5 4.46446 0.5 2.69669 1.59835 1.59835C2.6967 0.5 4.46446 0.5 7.99999 0.5C11.5355 0.5 13.3033 0.5 14.4017 1.59835C15.5 2.69669 15.5 4.46446 15.5 8.00001C15.5 11.5355 15.5 13.3033 14.4017 14.4016C13.3033 15.5 11.5355 15.5 7.99999 15.5C4.46446 15.5 2.6967 15.5 1.59835 14.4016C0.5 13.3033 0.5 11.5355 0.5 8.00001Z" stroke="#222222" stroke-linecap="round"/>
</g>
<defs>
<clipPath id="clip0_9069_8602">
<rect width="15" height="15" fill="white" transform="translate(0.5 0.5)"/>
</clipPath>
</defs>
</svg>
