<svg width="10" height="2" viewBox="0 0 10 2" fill="none" xmlns="http://www.w3.org/2000/svg">
<g clip-path="url(#clip0_9066_8298)">
<path fill-rule="evenodd" clip-rule="evenodd" d="M9.13793 0.134827C9.61404 0.134827 10 0.520788 10 0.996896L10 1.0031C10 1.47921 9.61404 1.86517 9.13793 1.86517C8.66182 1.86517 8.27586 1.47921 8.27586 1.0031L8.27586 0.996896C8.27586 0.520788 8.66182 0.134827 9.13793 0.134827ZM5 0.134826C5.47611 0.134826 5.86207 0.520788 5.86207 0.996895L5.86207 1.0031C5.86207 1.47921 5.47611 1.86517 5 1.86517C4.52389 1.86517 4.13793 1.47921 4.13793 1.0031L4.13793 0.996895C4.13793 0.520788 4.52389 0.134826 5 0.134826ZM0.862069 0.134826C1.33818 0.134826 1.72414 0.520788 1.72414 0.996895L1.72414 1.0031C1.72414 1.47921 1.33818 1.86517 0.862069 1.86517C0.385961 1.86517 -5.87649e-08 1.47921 -3.79536e-08 1.0031L-3.76822e-08 0.996895C-1.68709e-08 0.520788 0.385961 0.134826 0.862069 0.134826Z" fill="#222222"/>
</g>
<defs>
<clipPath id="clip0_9066_8298">
<rect width="10" height="1.73035" fill="white" transform="translate(0 0.134827)"/>
</clipPath>
</defs>
</svg>
