<svg width="16" height="16" viewBox="0 0 16 16" fill="none" xmlns="http://www.w3.org/2000/svg">
<g clip-path="url(#clip0_9069_8592)">
<path d="M14.7105 11.0219C12.7356 15.7021 6.31373 17.0659 2.6327 13.419C-0.976722 9.84317 0.140734 3.36486 4.88673 1.28947M12.4866 8.39473C13.9769 8.39473 14.722 8.39473 15.2032 7.72762C15.2212 7.70268 15.2511 7.65791 15.2672 7.63178C15.6995 6.93191 15.4767 6.3942 15.0313 5.31877C14.6273 4.34357 14.0353 3.45748 13.2889 2.7111C12.5425 1.96472 11.6564 1.37265 10.6812 0.968711C9.60578 0.523259 9.06807 0.300525 8.3682 0.732714C8.34207 0.748866 8.29731 0.778756 8.27236 0.79674C7.60525 1.27795 7.60525 2.02307 7.60525 3.51331V5.17959C7.60525 6.69523 7.60525 7.45305 8.0761 7.92389C8.54694 8.39473 9.30475 8.39473 10.8204 8.39473H12.4866Z" stroke="#222222" stroke-linecap="round"/>
</g>
<defs>
<clipPath id="clip0_9069_8592">
<rect width="15" height="15" fill="white" transform="translate(0.5 0.5)"/>
</clipPath>
</defs>
</svg>
