<svg width="15" height="16" viewBox="0 0 15 16" fill="none" xmlns="http://www.w3.org/2000/svg">
<g clip-path="url(#clip0_9054_3268)">
<path d="M0 3.5C0 2.08579 -4.47035e-08 1.37868 0.439342 0.939342C0.878677 0.5 1.58579 0.5 3 0.5C4.41421 0.5 5.12132 0.5 5.56066 0.939342C6 1.37868 6 2.08579 6 3.5V5C6 6.41421 6 7.1213 5.56066 7.56065C5.12132 8 4.41421 8 3 8C1.58579 8 0.878677 8 0.439342 7.56065C-4.47035e-08 7.1213 0 6.41421 0 5V3.5Z" stroke="#222222"/>
<path d="M0 13.25C0 12.5511 3.35276e-08 12.2017 0.11418 11.926C0.266423 11.5585 0.558435 11.2664 0.925973 11.1142C1.20164 11 1.55109 11 2.25 11H3.75C4.44891 11 4.79837 11 5.07403 11.1142C5.44157 11.2664 5.73358 11.5585 5.88582 11.926C6 12.2017 6 12.5511 6 13.25C6 13.9489 6 14.2983 5.88582 14.574C5.73358 14.9415 5.44157 15.2336 5.07403 15.3858C4.79837 15.5 4.44891 15.5 3.75 15.5H2.25C1.55109 15.5 1.20164 15.5 0.925973 15.3858C0.558435 15.2336 0.266423 14.9415 0.11418 14.574C3.35276e-08 14.2983 0 13.9489 0 13.25Z" stroke="#222222"/>
<path d="M9 11C9 9.5858 9 8.8787 9.43935 8.43935C9.8787 8 10.5858 8 12 8C13.4142 8 14.1213 8 14.5606 8.43935C15 8.8787 15 9.5858 15 11V12.5C15 13.9142 15 14.6213 14.5606 15.0606C14.1213 15.5 13.4142 15.5 12 15.5C10.5858 15.5 9.8787 15.5 9.43935 15.0606C9 14.6213 9 13.9142 9 12.5V11Z" stroke="#222222"/>
<path d="M9 2.75C9 2.05109 9 1.70164 9.11415 1.42597C9.2664 1.05844 9.55845 0.766423 9.92595 0.61418C10.2017 0.5 10.5511 0.5 11.25 0.5H12.75C13.4489 0.5 13.7983 0.5 14.074 0.61418C14.4415 0.766423 14.7336 1.05844 14.8858 1.42597C15 1.70164 15 2.05109 15 2.75C15 3.44891 15 3.79836 14.8858 4.07403C14.7336 4.44156 14.4415 4.73358 14.074 4.88582C13.7983 5 13.4489 5 12.75 5H11.25C10.5511 5 10.2017 5 9.92595 4.88582C9.55845 4.73358 9.2664 4.44156 9.11415 4.07403C9 3.79836 9 3.44891 9 2.75Z" stroke="#222222"/>
</g>
<defs>
<clipPath id="clip0_9054_3268">
<rect width="15" height="15" fill="white" transform="translate(0 0.5)"/>
</clipPath>
</defs>
</svg>
