<svg width="15" height="14" viewBox="0 0 15 14" fill="none" xmlns="http://www.w3.org/2000/svg">
<g clip-path="url(#clip0_9069_8441)">
<path d="M14.9708 6.24727C14.953 5.9717 14.7152 5.76273 14.4396 5.78053C14.1641 5.79832 13.9551 6.03613 13.9729 6.3117L14.9708 6.24727ZM14.4719 8.04362L14.9708 8.07588L14.9708 8.07584L14.4719 8.04362ZM9.01941 13.5733L8.98626 13.0744L8.98624 13.0744L9.01941 13.5733ZM5.98058 13.5733L6.01375 13.0744L6.01374 13.0744L5.98058 13.5733ZM4.9408 13.3359L4.75037 13.7982L4.7504 13.7982L4.9408 13.3359ZM4.3118 13.1256L4.3728 13.6218H4.37281L4.3118 13.1256ZM3.82407 13.4292L3.52735 13.0268L3.52733 13.0268L3.82407 13.4292ZM1.8996 13.9987L1.91177 13.4989H1.91175L1.8996 13.9987ZM1.14039 13.8146L0.709101 14.0675L0.709109 14.0675L1.14039 13.8146ZM1.41014 12.9485L0.967936 12.7151L0.967934 12.7151L1.41014 12.9485ZM1.63953 10.9722L2.07721 10.7305C2.07053 10.7184 2.06335 10.7066 2.0557 10.6951L1.63953 10.9722ZM0.528166 8.04362L0.029207 8.07587L0.0292072 8.07587L0.528166 8.04362ZM0.528166 6.27949L0.0292071 6.24724L0.029207 6.24724L0.528166 6.27949ZM5.98058 0.749749L6.01374 1.24865L6.01374 1.24865L5.98058 0.749749ZM7.8274 1.22307C8.10327 1.23554 8.33701 1.02203 8.34948 0.746165C8.36196 0.470304 8.14844 0.236562 7.87258 0.224086L7.8274 1.22307ZM13.9729 6.3117C14.009 6.87139 14.009 7.45173 13.9729 8.01141L14.9708 8.07584C15.0097 7.47325 15.0097 6.84987 14.9708 6.24727L13.9729 6.3117ZM13.9729 8.01138C13.7968 10.736 11.6586 12.8968 8.98626 13.0744L9.05257 14.0722C12.2364 13.8606 14.763 11.2904 14.9708 8.07588L13.9729 8.01138ZM8.98624 13.0744C8.00939 13.1394 6.98862 13.1393 6.01375 13.0744L5.9474 14.0722C6.96641 14.14 8.0315 14.1401 9.05259 14.0722L8.98624 13.0744ZM6.01374 13.0744C5.72008 13.0549 5.39947 12.9841 5.1312 12.8736L4.7504 13.7982C5.12668 13.9532 5.55445 14.0461 5.94741 14.0722L6.01374 13.0744ZM5.13124 12.8736C4.95749 12.802 4.80836 12.7404 4.69185 12.6994C4.60203 12.6679 4.42853 12.6074 4.2508 12.6293L4.37281 13.6218C4.31603 13.6288 4.28187 13.6193 4.29191 13.6215C4.29813 13.6229 4.31829 13.6281 4.36016 13.6428C4.44573 13.6729 4.56555 13.7221 4.75037 13.7982L5.13124 12.8736ZM4.25081 12.6293C4.08096 12.6502 3.94034 12.7375 3.86128 12.7887C3.76786 12.8492 3.65407 12.9333 3.52735 13.0268L4.1208 13.8316C4.25848 13.7301 4.343 13.6681 4.40456 13.6283C4.41846 13.6193 4.42886 13.6129 4.43644 13.6086C4.44409 13.6042 4.44725 13.6027 4.44668 13.603C4.44618 13.6032 4.43968 13.6063 4.42813 13.61C4.41646 13.6137 4.3976 13.6188 4.3728 13.6218L4.25081 12.6293ZM3.52733 13.0268C3.1454 13.3084 2.66571 13.5172 1.91177 13.4989L1.88743 14.4986C2.87542 14.5226 3.57034 14.2375 4.12081 13.8316L3.52733 13.0268ZM1.91175 13.4989C1.79936 13.4961 1.71141 13.494 1.63656 13.4898C1.56103 13.4857 1.51523 13.4803 1.48681 13.4748C1.45856 13.4693 1.46766 13.4674 1.49188 13.4816C1.52276 13.4997 1.55236 13.5287 1.57166 13.5616L0.709109 14.0675C0.859489 14.3239 1.09979 14.4184 1.2968 14.4565C1.47023 14.4901 1.68572 14.4937 1.88744 14.4986L1.91175 13.4989ZM1.57167 13.5616C1.63657 13.6722 1.58377 13.7544 1.61707 13.6612C1.65119 13.5657 1.72199 13.4288 1.85236 13.1818L0.967934 12.7151C0.852737 12.9334 0.739371 13.1456 0.675357 13.3248C0.610523 13.5063 0.545626 13.7888 0.709101 14.0675L1.57167 13.5616ZM1.85235 13.1818C2.20135 12.5204 2.53834 11.5654 2.07721 10.7305L1.20186 11.214C1.39467 11.563 1.30008 12.0857 0.967936 12.7151L1.85235 13.1818ZM2.0557 10.6951C1.51641 9.88528 1.08906 8.96968 1.02713 8.01138L0.0292072 8.07587C0.107076 9.28071 0.636391 10.368 1.22337 11.2494L2.0557 10.6951ZM1.02713 8.01138C0.990958 7.45171 0.990958 6.8714 1.02713 6.31173L0.029207 6.24724C-0.00973564 6.84986 -0.00973564 7.47326 0.029207 8.07587L1.02713 8.01138ZM1.02713 6.31173C1.20321 3.58706 3.34139 1.42629 6.01374 1.24865L5.94741 0.25085C2.76355 0.462493 0.236957 3.03266 0.0292071 6.24724L1.02713 6.31173ZM6.01374 1.24865C6.84146 1.19362 6.99692 1.18551 7.8274 1.22307L7.87258 0.224086C6.99675 0.184477 6.80305 0.193971 5.94741 0.25085L6.01374 1.24865ZM14 2.45C14 3.52696 13.127 4.4 12.05 4.4V5.4C13.6792 5.4 15 4.07924 15 2.45H14ZM12.05 4.4C10.973 4.4 10.1 3.52695 10.1 2.45H9.09999C9.09999 4.07924 10.4208 5.4 12.05 5.4V4.4ZM10.1 2.45C10.1 1.37304 10.973 0.5 12.05 0.5V-0.5C10.4208 -0.5 9.09999 0.820757 9.09999 2.45H10.1ZM12.05 0.5C13.127 0.5 14 1.37304 14 2.45H15C15 0.820757 13.6792 -0.5 12.05 -0.5V0.5Z" fill="#222222"/>
</g>
<defs>
<clipPath id="clip0_9069_8441">
<rect width="14" height="14" fill="white" transform="translate(0.5)"/>
</clipPath>
</defs>
</svg>
