<svg width="16" height="16" viewBox="0 0 16 16" fill="none" xmlns="http://www.w3.org/2000/svg">
<g clip-path="url(#clip0_9069_8587)">
<path d="M0.5 3.5C0.5 2.08579 0.5 1.37868 0.939342 0.939342C1.37868 0.5 2.08579 0.5 3.5 0.5C4.91421 0.5 5.62132 0.5 6.06066 0.939342C6.5 1.37868 6.5 2.08579 6.5 3.5V5C6.5 6.41421 6.5 7.1213 6.06066 7.56065C5.62132 8 4.91421 8 3.5 8C2.08579 8 1.37868 8 0.939342 7.56065C0.5 7.1213 0.5 6.41421 0.5 5V3.5Z" stroke="#222222"/>
<path d="M0.5 13.25C0.5 12.5511 0.5 12.2017 0.61418 11.926C0.766423 11.5585 1.05844 11.2664 1.42597 11.1142C1.70164 11 2.05109 11 2.75 11H4.25C4.94891 11 5.29837 11 5.57403 11.1142C5.94157 11.2664 6.23358 11.5585 6.38582 11.926C6.5 12.2017 6.5 12.5511 6.5 13.25C6.5 13.9489 6.5 14.2983 6.38582 14.574C6.23358 14.9415 5.94157 15.2336 5.57403 15.3858C5.29837 15.5 4.94891 15.5 4.25 15.5H2.75C2.05109 15.5 1.70164 15.5 1.42597 15.3858C1.05844 15.2336 0.766423 14.9415 0.61418 14.574C0.5 14.2983 0.5 13.9489 0.5 13.25Z" stroke="#222222"/>
<path d="M9.5 11C9.5 9.5858 9.5 8.8787 9.93935 8.43935C10.3787 8 11.0858 8 12.5 8C13.9142 8 14.6213 8 15.0606 8.43935C15.5 8.8787 15.5 9.5858 15.5 11V12.5C15.5 13.9142 15.5 14.6213 15.0606 15.0606C14.6213 15.5 13.9142 15.5 12.5 15.5C11.0858 15.5 10.3787 15.5 9.93935 15.0606C9.5 14.6213 9.5 13.9142 9.5 12.5V11Z" stroke="#222222"/>
<path d="M9.5 2.75C9.5 2.05109 9.5 1.70164 9.61415 1.42597C9.7664 1.05844 10.0585 0.766423 10.426 0.61418C10.7017 0.5 11.0511 0.5 11.75 0.5H13.25C13.9489 0.5 14.2983 0.5 14.574 0.61418C14.9415 0.766423 15.2336 1.05844 15.3858 1.42597C15.5 1.70164 15.5 2.05109 15.5 2.75C15.5 3.44891 15.5 3.79836 15.3858 4.07403C15.2336 4.44156 14.9415 4.73358 14.574 4.88582C14.2983 5 13.9489 5 13.25 5H11.75C11.0511 5 10.7017 5 10.426 4.88582C10.0585 4.73358 9.7664 4.44156 9.61415 4.07403C9.5 3.79836 9.5 3.44891 9.5 2.75Z" stroke="#222222"/>
</g>
<defs>
<clipPath id="clip0_9069_8587">
<rect width="15" height="15" fill="white" transform="translate(0.5 0.5)"/>
</clipPath>
</defs>
</svg>
