<svg width="15" height="16" viewBox="0 0 15 16" fill="none" xmlns="http://www.w3.org/2000/svg">
<g clip-path="url(#clip0_9054_3275)">
<path d="M4.125 11.75C5.87378 9.91835 9.1074 9.8321 10.875 11.75M15 8C15 12.1421 11.6421 15.5 7.5 15.5C3.35786 15.5 0 12.1421 0 8C0 3.85786 3.35786 0.5 7.5 0.5C11.6421 0.5 15 3.85786 15 8ZM9.37133 6.125C9.37133 7.16053 8.53065 8 7.49362 8C6.45667 8 5.61598 7.16053 5.61598 6.125C5.61598 5.08947 6.45667 4.25 7.49362 4.25C8.53065 4.25 9.37133 5.08947 9.37133 6.125Z" stroke="#222222" stroke-linecap="round"/>
</g>
<defs>
<clipPath id="clip0_9054_3275">
<rect width="15" height="15" fill="white" transform="translate(0 0.5)"/>
</clipPath>
</defs>
</svg>
