<svg width="16" height="14" viewBox="0 0 16 14" fill="none" xmlns="http://www.w3.org/2000/svg">
<g clip-path="url(#clip0_9069_8589)">
<path d="M11.2 7.79998H12.8M16 9.39998V7.36174C16 6.57782 16 6.18582 15.9382 5.80686C15.9075 5.61942 15.8658 5.43502 15.8131 5.25508C15.7066 4.89126 15.5416 4.55511 15.2116 3.88286C14.5501 2.53539 14.2194 1.86166 13.7372 1.40908C13.5005 1.1869 13.2394 1.00628 12.9618 0.872496C12.3962 0.599976 11.7533 0.599976 10.4676 0.599976H5.53238C4.24669 0.599976 3.60384 0.599976 3.03823 0.872496C2.76055 1.00628 2.49955 1.1869 2.26282 1.40908C1.78063 1.86166 1.44989 2.53539 0.7884 3.88286C0.458384 4.55513 0.293368 4.89126 0.186912 5.25508C0.134248 5.43502 0.0924561 5.61942 0.0618641 5.80686C8.85555e-08 6.18582 0 6.57782 0 7.36174V9.39998M12 4.59998H4C2.50462 4.59998 1.75692 4.59998 1.2 4.95367C0.835152 5.18538 0.532184 5.51862 0.321536 5.91998C8.17435e-08 6.53262 0 7.35502 0 8.99998C0 10.6449 8.17435e-08 11.4673 0.321536 12.08C0.532184 12.4813 0.835152 12.8145 1.2 13.0463C1.75692 13.4 2.50462 13.4 4 13.4C4.49066 13.4 4.73598 13.4 4.96826 13.3623C5.58797 13.2617 6.16722 12.9633 6.63416 12.504C6.8092 12.3318 6.96624 12.1245 7.2804 11.7099L7.54768 11.357C7.70672 11.1471 7.78624 11.0421 7.88344 11.0011C7.96416 10.9669 8.05272 10.9625 8.13592 10.9885C8.23608 11.0197 8.32392 11.1163 8.4996 11.3095L9.26864 12.1555C9.45944 12.3653 9.5548 12.4703 9.65408 12.5629C10.1645 13.0398 10.7981 13.3285 11.4655 13.3884C11.5953 13.4 11.7302 13.4 12 13.4C13.4954 13.4 14.243 13.4 14.8 13.0463C15.1649 12.8145 15.4678 12.4813 15.6785 12.08C16 11.4673 16 10.6449 16 8.99998C16 7.35502 16 6.53262 15.6785 5.91998C15.4678 5.51862 15.1649 5.18538 14.8 4.95367C14.243 4.59998 13.4954 4.59998 12 4.59998Z" stroke="#222222" stroke-linecap="round"/>
</g>
<defs>
<clipPath id="clip0_9069_8589">
<rect width="16" height="12.8" fill="white" transform="translate(0 0.599976)"/>
</clipPath>
</defs>
</svg>
