<svg width="14" height="14" viewBox="0 0 14 14" fill="none" xmlns="http://www.w3.org/2000/svg">
<g clip-path="url(#clip0_9069_8597)">
<path d="M14.4708 6.24727C14.453 5.9717 14.2152 5.76273 13.9396 5.78053C13.6641 5.79832 13.4551 6.03613 13.4729 6.3117L14.4708 6.24727ZM13.9719 8.04363L14.4708 8.07588L14.4708 8.07584L13.9719 8.04363ZM8.51941 13.5733L8.48626 13.0744L8.48624 13.0744L8.51941 13.5733ZM5.48058 13.5733L5.51375 13.0744L5.51374 13.0744L5.48058 13.5733ZM4.4408 13.3359L4.25037 13.7982L4.2504 13.7982L4.4408 13.3359ZM3.8118 13.1256L3.8728 13.6218L3.87281 13.6218L3.8118 13.1256ZM3.32407 13.4292L3.02735 13.0268L3.02733 13.0268L3.32407 13.4292ZM1.3996 13.9987L1.41177 13.4989L1.41175 13.4989L1.3996 13.9987ZM0.640386 13.8146L0.209101 14.0675L0.209109 14.0675L0.640386 13.8146ZM0.910145 12.9485L0.467936 12.7151L0.467934 12.7151L0.910145 12.9485ZM1.13953 10.9722L1.57721 10.7305C1.57053 10.7184 1.56335 10.7066 1.5557 10.6951L1.13953 10.9722ZM0.0281662 8.04363L-0.470793 8.07587L-0.470793 8.07587L0.0281662 8.04363ZM0.0281662 6.27949L-0.470793 6.24724L-0.470793 6.24724L0.0281662 6.27949ZM5.48058 0.749749L5.51374 1.24865L5.51374 1.24865L5.48058 0.749749ZM7.32741 1.22307C7.60327 1.23554 7.83701 1.02203 7.84948 0.746165C7.86196 0.470304 7.64844 0.236562 7.37258 0.224086L7.32741 1.22307ZM13.4729 6.3117C13.509 6.87139 13.509 7.45173 13.4729 8.01141L14.4708 8.07584C14.5097 7.47325 14.5097 6.84987 14.4708 6.24727L13.4729 6.3117ZM13.4729 8.01138C13.2968 10.736 11.1586 12.8968 8.48626 13.0744L8.55257 14.0722C11.7364 13.8606 14.263 11.2904 14.4708 8.07588L13.4729 8.01138ZM8.48624 13.0744C7.50938 13.1394 6.48862 13.1393 5.51375 13.0744L5.4474 14.0722C6.46641 14.14 7.5315 14.1401 8.55259 14.0722L8.48624 13.0744ZM5.51374 13.0744C5.22008 13.0549 4.89947 12.9841 4.6312 12.8736L4.2504 13.7982C4.62668 13.9532 5.05445 14.0461 5.44741 14.0722L5.51374 13.0744ZM4.63124 12.8736C4.45749 12.802 4.30836 12.7404 4.19185 12.6994C4.10203 12.6679 3.92853 12.6074 3.7508 12.6293L3.87281 13.6218C3.81603 13.6288 3.78187 13.6193 3.79191 13.6215C3.79813 13.6229 3.81829 13.6281 3.86016 13.6428C3.94573 13.6729 4.06555 13.7221 4.25037 13.7982L4.63124 12.8736ZM3.75081 12.6293C3.58096 12.6502 3.44034 12.7375 3.36128 12.7887C3.26786 12.8492 3.15407 12.9333 3.02735 13.0268L3.6208 13.8316C3.75848 13.7301 3.843 13.6681 3.90456 13.6283C3.91846 13.6193 3.92886 13.6129 3.93644 13.6086C3.94409 13.6042 3.94725 13.6027 3.94668 13.603C3.94618 13.6032 3.93968 13.6063 3.92813 13.61C3.91646 13.6137 3.8976 13.6188 3.8728 13.6218L3.75081 12.6293ZM3.02733 13.0268C2.6454 13.3084 2.16571 13.5172 1.41177 13.4989L1.38743 14.4986C2.37542 14.5226 3.07034 14.2375 3.62081 13.8316L3.02733 13.0268ZM1.41175 13.4989C1.29936 13.4961 1.21141 13.494 1.13656 13.4898C1.06103 13.4857 1.01523 13.4803 0.986814 13.4748C0.958561 13.4693 0.967657 13.4674 0.991875 13.4816C1.02276 13.4997 1.05236 13.5287 1.07166 13.5616L0.209109 14.0675C0.359489 14.3239 0.599785 14.4184 0.796797 14.4565C0.970232 14.4901 1.18572 14.4937 1.38744 14.4986L1.41175 13.4989ZM1.07167 13.5616C1.13657 13.6722 1.08377 13.7544 1.11707 13.6612C1.15119 13.5657 1.22199 13.4288 1.35236 13.1818L0.467934 12.7151C0.352737 12.9334 0.239371 13.1456 0.175357 13.3248C0.110523 13.5063 0.0456255 13.7888 0.209101 14.0675L1.07167 13.5616ZM1.35235 13.1818C1.70135 12.5204 2.03834 11.5654 1.57721 10.7305L0.701857 11.214C0.89467 11.563 0.800081 12.0857 0.467936 12.7151L1.35235 13.1818ZM1.5557 10.6951C1.01641 9.88528 0.589061 8.96968 0.527125 8.01138L-0.470793 8.07587C-0.392924 9.28071 0.136391 10.368 0.723374 11.2494L1.5557 10.6951ZM0.527125 8.01138C0.490958 7.45172 0.490958 6.8714 0.527125 6.31173L-0.470793 6.24724C-0.509736 6.84986 -0.509736 7.47326 -0.470793 8.07587L0.527125 8.01138ZM0.527125 6.31173C0.703214 3.58706 2.84139 1.42629 5.51374 1.24865L5.44741 0.25085C2.26355 0.462493 -0.263043 3.03266 -0.470793 6.24724L0.527125 6.31173ZM5.51374 1.24865C6.34146 1.19362 6.49692 1.18551 7.32741 1.22307L7.37258 0.224086C6.49675 0.184477 6.30305 0.193971 5.44741 0.25085L5.51374 1.24865ZM13.5 2.45C13.5 3.52696 12.6269 4.4 11.55 4.4V5.4C13.1792 5.4 14.5 4.07924 14.5 2.45H13.5ZM11.55 4.4C10.473 4.4 9.59999 3.52695 9.59999 2.45H8.59999C8.59999 4.07924 9.92075 5.4 11.55 5.4V4.4ZM9.59999 2.45C9.59999 1.37304 10.473 0.5 11.55 0.5V-0.5C9.92075 -0.5 8.59999 0.820757 8.59999 2.45H9.59999ZM11.55 0.5C12.6269 0.5 13.5 1.37304 13.5 2.45H14.5C14.5 0.820757 13.1792 -0.5 11.55 -0.5V0.5Z" fill="#222222"/>
</g>
<defs>
<clipPath id="clip0_9069_8597">
<rect width="14" height="14" fill="white"/>
</clipPath>
</defs>
</svg>
