<svg width="16" height="14" viewBox="0 0 16 14" fill="none" xmlns="http://www.w3.org/2000/svg">
<g clip-path="url(#clip0_9069_8596)">
<path d="M9.2 5.69998C8.92386 5.69998 8.7 5.92383 8.7 6.19998C8.7 6.47612 8.92386 6.69998 9.2 6.69998V5.69998ZM9.2 0.0999756C8.92386 0.0999756 8.7 0.323833 8.7 0.599976C8.7 0.876118 8.92386 1.09998 9.2 1.09998V0.0999756ZM8.91432 13.9C9.19046 13.9 9.41432 13.6761 9.41432 13.4C9.41432 13.1238 9.19046 12.9 8.91432 12.9V13.9ZM8.62944 9.69632C8.85638 9.85366 9.16789 9.79723 9.32523 9.5703C9.48256 9.34336 9.42614 9.03184 9.1992 8.87451L8.62944 9.69632ZM14.1 8.59998C14.1 8.32383 13.8761 8.09998 13.6 8.09998C13.3239 8.09998 13.1 8.32383 13.1 8.59998H14.1ZM13.1 13.4C13.1 13.6761 13.3239 13.9 13.6 13.9C13.8761 13.9 14.1 13.6761 14.1 13.4H13.1ZM16 11.5C16.2761 11.5 16.5 11.2761 16.5 11C16.5 10.7238 16.2761 10.5 16 10.5V11.5ZM11.2 10.5C10.9239 10.5 10.7 10.7238 10.7 11C10.7 11.2761 10.9239 11.5 11.2 11.5V10.5ZM7.5 3.39998C7.5 4.67023 6.47026 5.69998 5.2 5.69998V6.69998C7.02254 6.69998 8.5 5.22252 8.5 3.39998H7.5ZM5.2 5.69998C3.92974 5.69998 2.9 4.67023 2.9 3.39998H1.9C1.9 5.22252 3.37746 6.69998 5.2 6.69998V5.69998ZM2.9 3.39998C2.9 2.12972 3.92974 1.09998 5.2 1.09998V0.0999756C3.37746 0.0999756 1.9 1.57743 1.9 3.39998H2.9ZM5.2 1.09998C6.47026 1.09998 7.5 2.12972 7.5 3.39998H8.5C8.5 1.57743 7.02254 0.0999756 5.2 0.0999756V1.09998ZM9.2 6.69998C11.0225 6.69998 12.5 5.22252 12.5 3.39998H11.5C11.5 4.67023 10.4703 5.69998 9.2 5.69998V6.69998ZM12.5 3.39998C12.5 1.57743 11.0225 0.0999756 9.2 0.0999756V1.09998C10.4703 1.09998 11.5 2.12972 11.5 3.39998H12.5ZM8.91432 12.9H1.48571V13.9H8.91432V12.9ZM1.48571 12.9C0.902884 12.9 0.5 12.4729 0.5 12.0285H-0.5C-0.5 13.099 0.427468 13.9 1.48571 13.9V12.9ZM0.5 12.0285C0.5 10.4481 1.90065 9.09998 3.71429 9.09998V8.09998C1.42524 8.09998 -0.5 9.82194 -0.5 12.0285H0.5ZM3.71429 9.09998H6.68568V8.09998H3.71429V9.09998ZM6.68568 9.09998C7.41957 9.09998 8.09194 9.32367 8.62944 9.69632L9.1992 8.87451C8.4951 8.38636 7.62411 8.09998 6.68568 8.09998V9.09998ZM13.1 8.59998V13.4H14.1V8.59998H13.1ZM16 10.5H11.2V11.5H16V10.5Z" fill="#222222"/>
</g>
<defs>
<clipPath id="clip0_9069_8596">
<rect width="16" height="12.8" fill="white" transform="translate(0 0.599976)"/>
</clipPath>
</defs>
</svg>
