<svg width="11" height="18" viewBox="0 0 11 18" fill="none" xmlns="http://www.w3.org/2000/svg">
<g clip-path="url(#clip0_9054_3271)">
<path d="M9.13739 6.3C10.5081 7.50177 11.3963 9.53721 10.5987 11.4347C10.4268 11.8435 10.0325 12.1085 9.5963 12.1085C9.15269 12.1085 8.42414 11.9664 8.28257 12.5437L7.29509 16.5711C7.08917 17.4109 6.3491 18 5.50013 18C4.65107 18 3.911 17.4109 3.70508 16.5711L2.71759 12.5437C2.57603 11.9664 1.84744 12.1085 1.40385 12.1085C0.967606 12.1085 0.573334 11.8435 0.401488 11.4347C-0.396101 9.53721 0.492118 7.50177 1.86281 6.3M8.20004 2.7C8.20004 4.19117 6.61766 5.85 5.50004 5.85C4.38242 5.85 2.80004 4.19117 2.80004 2.7C2.80004 1.20883 4.00883 0 5.50004 0C6.99125 0 8.20004 1.20883 8.20004 2.7Z" stroke="#222222" stroke-linecap="round"/>
</g>
<defs>
<clipPath id="clip0_9054_3271">
<rect width="10.8" height="18" fill="white" transform="translate(0.100098)"/>
</clipPath>
</defs>
</svg>
